<?xml version="1.0" standalone="no"?>
<!DOCTYPE svg PUBLIC "-//W3C//DTD SVG 20010904//EN"
 "http://www.w3.org/TR/2001/REC-SVG-20010904/DTD/svg10.dtd">
<svg version="1.0" xmlns="http://www.w3.org/2000/svg"
 width="889.000000pt" height="889.000000pt" viewBox="0 0 889.000000 889.000000"
 preserveAspectRatio="xMidYMid meet">
<metadata>
Created by potrace 1.14, written by Peter Selinger 2001-2017
</metadata>
<g transform="translate(0.000000,889.000000) scale(0.100000,-0.100000)"
fill="#000000" stroke="none">
<path d="M4199 8886 c-2 -2 -47 -6 -100 -10 -53 -4 -107 -8 -120 -11 -13 -2
-51 -6 -84 -10 -33 -3 -100 -13 -150 -21 -117 -19 -125 -21 -155 -28 -14 -3
-36 -8 -50 -10 -14 -2 -63 -13 -110 -24 -686 -161 -1308 -474 -1862 -939 -87
-73 -402 -380 -460 -449 -122 -145 -267 -332 -326 -420 -147 -220 -260 -417
-356 -624 -54 -116 -67 -145 -101 -225 -20 -46 -102 -275 -115 -320 -6 -22
-14 -47 -17 -55 -3 -8 -7 -19 -9 -25 -1 -5 -18 -71 -38 -145 -53 -203 -93
-413 -111 -581 -3 -30 -8 -63 -10 -74 -19 -95 -27 -626 -12 -815 13 -158 22
-226 52 -405 33 -188 31 -182 71 -335 19 -74 36 -142 38 -150 24 -96 133 -395
197 -542 46 -106 176 -366 199 -398 11 -16 20 -31 20 -34 0 -18 246 -395 287
-441 10 -11 26 -32 36 -47 91 -143 476 -545 682 -713 20 -16 42 -35 48 -40 7
-6 32 -26 57 -45 25 -19 47 -37 50 -40 29 -33 365 -254 507 -333 100 -57 357
-187 367 -187 5 0 60 -24 151 -65 54 -24 338 -124 357 -125 4 -1 27 -8 50 -16
39 -13 177 -51 221 -60 10 -2 26 -5 35 -8 9 -3 29 -7 45 -10 15 -3 35 -7 45
-10 9 -3 31 -8 47 -11 99 -17 206 -35 245 -40 25 -3 77 -10 115 -15 146 -19
228 -23 495 -24 239 -1 411 6 476 18 11 2 50 7 89 11 38 4 72 8 75 10 3 1 30
6 60 9 61 7 107 15 130 21 8 2 31 7 50 10 30 5 82 16 143 31 9 2 25 6 35 8 9
2 69 18 132 36 63 17 120 32 125 34 32 7 196 65 295 103 360 139 663 303 1018
551 49 35 246 192 312 248 66 58 359 351 414 414 26 30 55 64 65 75 18 20 209
270 246 322 182 256 380 633 508 968 54 139 135 400 152 485 2 8 8 35 15 60 7
25 14 56 16 70 3 14 7 32 9 40 2 8 7 31 10 50 3 19 8 49 12 65 4 17 7 32 8 35
1 3 5 32 10 65 5 33 9 62 10 65 0 3 5 37 10 75 4 39 9 79 11 90 19 144 26 644
11 815 -12 141 -29 279 -47 380 -5 30 -12 73 -15 95 -4 22 -8 48 -11 57 -3 10
-8 30 -11 45 -3 16 -6 33 -7 38 -2 6 -6 24 -10 40 -38 159 -80 311 -96 350 -5
11 -16 45 -26 75 -9 30 -36 105 -60 167 -24 61 -44 114 -44 117 0 18 -195 413
-236 477 -13 21 -24 41 -24 45 0 3 -13 26 -30 51 -16 24 -30 46 -30 49 0 5
-156 239 -172 259 -5 5 -32 42 -60 80 -28 39 -54 72 -58 75 -3 3 -21 25 -40
50 -81 105 -147 178 -310 341 -191 193 -297 284 -520 451 -75 55 -334 228
-343 228 -3 0 -34 17 -68 39 -89 53 -392 204 -484 241 -26 10 -112 44 -150 60
-99 41 -458 152 -534 165 -19 3 -37 8 -41 10 -4 2 -20 7 -36 9 -16 3 -40 8
-54 11 -14 3 -36 7 -50 10 -14 3 -36 7 -50 10 -30 6 -128 22 -190 30 -25 3
-52 8 -60 10 -8 2 -51 7 -95 11 -44 4 -93 8 -110 11 -39 4 -601 13 -606 9z"/>
</g>
</svg>
