<?xml version="1.0" standalone="no"?>
<!DOCTYPE svg PUBLIC "-//W3C//DTD SVG 20010904//EN"
 "http://www.w3.org/TR/2001/REC-SVG-20010904/DTD/svg10.dtd">
<svg version="1.0" xmlns="http://www.w3.org/2000/svg"
 width="512.000000pt" height="512.000000pt" viewBox="0 0 512.000000 512.000000"
 preserveAspectRatio="xMidYMid meet">

<g transform="translate(0.000000,512.000000) scale(0.100000,-0.100000)"
fill="#000000" stroke="none">
<path d="M210 5111 c-91 -19 -166 -85 -195 -170 -22 -65 -22 -517 1 -583 39
-116 126 -168 297 -176 59 -3 110 -9 113 -13 7 -12 71 -12 78 -1 3 5 56 12
119 15 125 6 164 18 222 68 62 55 85 116 85 232 l0 97 48 0 c38 0 53 5 70 23
50 54 12 117 -70 117 l-48 0 0 98 c0 115 -23 176 -85 231 -72 63 -85 65 -355
67 -135 2 -261 -1 -280 -5z m492 -141 c20 -6 48 -24 62 -41 l26 -31 0 -248 0
-248 -26 -31 c-14 -17 -42 -35 -62 -41 -52 -14 -438 -12 -482 3 -19 7 -44 27
-57 46 -22 33 -23 41 -23 271 0 338 -9 329 320 329 113 1 222 -4 242 -9z"/>
<path d="M4392 5110 c-79 -17 -146 -72 -181 -150 -16 -35 -21 -66 -21 -143 0
-83 -3 -103 -20 -124 -11 -14 -20 -33 -20 -43 0 -10 9 -29 20 -43 17 -21 20
-40 20 -124 0 -116 23 -177 85 -232 55 -48 94 -61 206 -68 l99 -6 0 -47 c0
-65 32 -93 91 -77 30 8 49 44 49 91 l0 33 98 6 c160 8 248 62 286 175 23 66
23 518 1 583 -21 62 -67 115 -129 147 -51 27 -51 27 -296 29 -135 1 -264 -2
-288 -7z m508 -143 c19 -7 44 -27 57 -46 22 -33 23 -41 23 -271 0 -338 9 -329
-320 -329 -113 -1 -222 4 -242 9 -20 6 -48 24 -62 41 l-26 31 0 248 0 248 26
31 c14 17 40 35 57 40 48 14 445 12 487 -2z"/>
<path d="M1655 4695 c-14 -13 -25 -33 -25 -45 0 -11 11 -32 25 -45 22 -23 32
-25 118 -25 85 0 96 2 115 23 28 30 28 68 -1 95 -20 19 -35 22 -116 22 -84 0
-94 -2 -116 -25z"/>
<path d="M2495 4695 c-14 -13 -25 -33 -25 -45 0 -11 11 -32 25 -45 22 -23 32
-25 118 -25 85 0 96 2 115 23 28 30 28 68 -1 95 -20 19 -35 22 -116 22 -84 0
-94 -2 -116 -25z"/>
<path d="M3335 4695 c-14 -13 -25 -33 -25 -45 0 -11 11 -32 25 -45 22 -23 32
-25 118 -25 85 0 96 2 115 23 28 30 28 68 -1 95 -20 19 -35 22 -116 22 -84 0
-94 -2 -116 -25z"/>
<path d="M1410 3970 c-19 -19 -20 -33 -20 -310 0 -277 1 -291 20 -310 19 -19
33 -20 420 -20 l400 0 0 -1080 c0 -1067 0 -1080 20 -1100 19 -19 33 -20 304
-20 265 0 285 1 307 19 l24 19 3 1081 2 1081 394 0 c373 0 395 1 417 19 l24
19 0 292 0 292 -24 19 c-23 18 -55 19 -1147 19 -1111 0 -1124 0 -1144 -20z
m2180 -310 l0 -190 -400 0 c-387 0 -401 -1 -420 -20 -20 -20 -20 -33 -20
-1100 l0 -1080 -190 0 -190 0 -2 1081 -3 1081 -24 19 c-22 18 -44 19 -417 19
l-394 0 0 190 0 190 1030 0 1030 0 0 -190z"/>
<path d="M417 3572 c-14 -15 -17 -40 -17 -119 0 -112 11 -133 67 -133 51 0 68
29 71 129 3 76 1 89 -18 114 -26 33 -78 37 -103 9z"/>
<path d="M4597 3462 c-25 -28 -24 -212 1 -235 22 -19 40 -23 73 -14 36 9 49
46 49 136 0 64 -4 83 -21 105 -25 32 -77 36 -102 8z"/>
<path d="M417 2732 c-14 -15 -17 -40 -17 -119 0 -112 11 -133 67 -133 51 0 68
29 71 129 3 76 1 89 -18 114 -26 33 -78 37 -103 9z"/>
<path d="M4597 2622 c-14 -15 -17 -40 -17 -119 0 -112 11 -133 66 -133 57 0
74 31 74 138 0 65 -4 84 -21 106 -25 32 -77 36 -102 8z"/>
<path d="M450 1912 c-43 -13 -50 -32 -50 -137 0 -114 10 -135 67 -135 51 0 68
29 71 129 3 75 1 89 -17 112 -22 28 -46 39 -71 31z"/>
<path d="M4597 1782 c-26 -28 -24 -212 1 -235 29 -26 77 -22 101 9 17 22 21
41 21 109 0 68 -4 87 -21 109 -25 32 -77 36 -102 8z"/>
<path d="M450 1072 c-35 -11 -50 -35 -50 -82 l0 -47 -104 -6 c-121 -7 -184
-32 -235 -94 -56 -67 -61 -101 -61 -373 0 -272 5 -306 61 -373 17 -21 54 -50
83 -65 l51 -27 270 0 c299 0 306 1 380 66 62 55 85 116 85 232 0 84 3 103 20
124 11 14 20 33 20 43 0 10 -9 29 -20 43 -17 21 -20 40 -20 124 0 116 -23 177
-85 232 -56 49 -97 62 -207 69 l-98 5 0 33 c0 64 -44 111 -90 96z m252 -282
c20 -6 48 -24 62 -41 l26 -31 0 -248 0 -248 -26 -31 c-14 -17 -42 -35 -62 -41
-52 -14 -438 -12 -482 3 -19 7 -44 27 -57 46 -22 33 -23 41 -23 271 0 338 -9
329 320 329 113 1 222 -4 242 -9z"/>
<path d="M4606 952 c-3 -5 -54 -11 -113 -14 -120 -6 -161 -19 -218 -69 -62
-55 -85 -116 -85 -231 l0 -98 -48 0 c-38 0 -53 -5 -70 -23 -50 -54 -12 -117
70 -117 l48 0 0 -97 c0 -116 23 -177 85 -232 74 -65 81 -66 380 -66 l270 0 51
27 c29 15 66 44 83 65 56 67 61 101 61 373 0 272 -5 306 -61 373 -52 63 -112
87 -247 97 -64 5 -136 12 -158 16 -23 3 -44 2 -48 -4z m294 -165 c19 -7 44
-27 57 -46 22 -33 23 -41 23 -271 0 -338 9 -329 -320 -329 -113 -1 -222 4
-242 9 -20 6 -48 24 -62 41 l-26 31 0 248 0 248 26 31 c14 17 40 35 57 40 48
14 445 12 487 -2z"/>
<path d="M1552 517 c-28 -30 -28 -68 1 -95 20 -19 35 -22 116 -22 84 0 94 2
116 25 32 31 32 59 0 90 -22 23 -32 25 -118 25 -85 0 -96 -2 -115 -23z"/>
<path d="M2392 517 c-28 -30 -28 -68 1 -95 20 -19 35 -22 116 -22 84 0 94 2
116 25 14 13 25 33 25 45 0 12 -11 32 -25 45 -22 23 -32 25 -118 25 -85 0 -96
-2 -115 -23z"/>
<path d="M3232 517 c-28 -30 -28 -68 1 -95 20 -19 35 -22 116 -22 84 0 94 2
116 25 14 13 25 33 25 45 0 12 -11 32 -25 45 -22 23 -32 25 -118 25 -85 0 -96
-2 -115 -23z"/>
</g>
</svg>
